<svg preserveAspectRatio="xMidYMid meet" width="180" height="20.8228" overflow="visible" style="display: block;" viewBox="0 0 180 20.8228" fill="none" xmlns="http://www.w3.org/2000/svg">
<g id="Frame 4">
<path id="Vector" d="M89.2006 10.4903C89.5686 9.48793 89.9366 8.45851 90.3046 7.45618C91.1255 5.15353 91.9747 2.85088 92.7956 0.521142C92.8522 0.358602 92.9655 0.331512 93.107 0.331512C94.7205 0.331512 96.334 0.331512 97.9475 0.331512C99.1081 0.331512 100.269 0.331512 101.401 0.331512C101.627 0.331512 101.684 0.385692 101.684 0.602412C101.684 7.1311 101.684 13.6598 101.684 20.1885C101.684 20.3781 101.627 20.4594 101.429 20.4594C99.4761 20.4594 97.5229 20.4594 95.5697 20.4594C95.3432 20.4594 95.3149 20.3781 95.3149 20.1885C95.3149 16.2063 95.3149 12.1969 95.3149 8.2147C95.3149 8.13343 95.3149 8.02507 95.3149 7.9438C95.2866 7.9438 95.2866 7.9438 95.2583 7.91671C95.1734 8.10634 95.0885 8.32306 95.0319 8.51269C93.9845 11.3571 92.9088 14.2016 91.8615 17.0731C91.4652 18.1296 91.0689 19.1862 90.7009 20.2427C90.6443 20.4052 90.5594 20.4594 90.3895 20.4323C89.5969 20.4323 88.8043 20.4323 88.0117 20.4323C87.8419 20.4323 87.757 20.3781 87.6721 20.2156C86.9078 18.1296 86.1435 16.0708 85.3792 13.9849C84.6432 12.0073 83.9072 10.0568 83.1712 8.07925C83.1712 8.05216 83.1429 7.99798 83.0863 7.97089C83.0863 8.05216 83.058 8.16052 83.058 8.24179C83.058 12.1969 83.058 16.125 83.058 20.0801C83.058 20.4594 83.0863 20.4323 82.7183 20.4323C80.7935 20.4323 78.8686 20.4323 76.972 20.4323C76.7456 20.4323 76.689 20.3781 76.689 20.1614C76.689 13.6327 76.689 7.1311 76.689 0.602412C76.689 0.331512 76.689 0.331512 76.972 0.331512C79.7178 0.331512 82.4636 0.331512 85.2093 0.331512C85.4358 0.331512 85.5207 0.385692 85.5773 0.575322C86.7379 3.82612 87.9268 7.07692 89.0874 10.3006C89.1157 10.3548 89.144 10.409 89.1723 10.4632C89.1723 10.4903 89.1723 10.4903 89.2006 10.4903Z" fill="var(--fill-0, white)"/>
<path id="Vector_2" d="M23.1396 10.2465C23.1396 12.2511 22.715 14.012 21.7242 15.6374C20.4504 17.7233 18.6105 19.1591 16.261 20.026C14.3361 20.7303 12.3546 20.947 10.3165 20.7574C8.22181 20.5948 6.29694 19.9718 4.57021 18.834C2.50381 17.4795 1.14507 15.6645 0.437397 13.3618C-0.0155143 11.8177 -0.128742 10.2465 0.154328 8.67524C0.862002 5.01809 3.01333 2.44454 6.5517 0.954588C8.5615 0.114798 10.7128 -0.129012 12.8925 0.0606178C14.9023 0.250248 16.7988 0.819138 18.4972 1.90274C20.5637 3.23015 21.9507 5.01809 22.6867 7.32074C22.9981 8.32307 23.1396 9.35249 23.1396 10.2465ZM11.2224 5.37026C9.66547 5.39735 8.13689 6.15587 7.20276 7.80836C6.58001 8.89196 6.43848 10.0568 6.60832 11.2759C6.74985 12.2511 7.11784 13.118 7.79721 13.8494C8.92949 15.0685 10.3731 15.5561 12.0433 15.4207C13.4586 15.3123 14.6475 14.7705 15.4967 13.6869C16.6007 12.3053 16.8837 10.7341 16.4591 9.0545C15.9213 6.77894 14.0247 5.37026 11.2224 5.37026Z" fill="var(--fill-0, white)"/>
<path id="Vector_3" d="M134.422 6.88726C134.422 4.80133 134.422 2.7154 134.422 0.629466C134.422 0.358566 134.422 0.358566 134.705 0.358566C136.658 0.358566 138.612 0.358566 140.565 0.358566C140.904 0.358566 140.904 0.358566 140.904 0.656556C140.904 4.36789 140.904 8.10631 140.904 11.8176C140.904 12.4678 140.961 13.118 141.272 13.7139C141.725 14.6621 142.49 15.1768 143.537 15.3664C144.358 15.5019 145.207 15.5019 146.028 15.2581C147.047 14.9601 147.698 14.2828 147.981 13.3347C148.123 12.8471 148.208 12.3324 148.208 11.8447C148.236 8.10631 148.208 4.39498 148.208 0.656556C148.208 0.358566 148.208 0.358566 148.519 0.358566C150.5 0.358566 152.454 0.358566 154.435 0.358566C154.605 0.358566 154.69 0.385656 154.69 0.602376C154.69 4.58461 154.69 8.59393 154.662 12.5762C154.662 14.337 154.18 15.9895 153.105 17.4524C152.086 18.861 150.67 19.755 148.972 20.2426C147.075 20.8115 145.122 20.8928 143.141 20.7573C141.81 20.6761 140.536 20.4323 139.319 19.9446C137.196 19.1049 135.781 17.6149 134.988 15.5832C134.535 14.4454 134.422 13.2534 134.422 12.0344C134.422 10.3277 134.422 8.62102 134.422 6.88726Z" fill="var(--fill-0, white)"/>
<path id="Vector_4" d="M170.219 20.8115C168.011 20.7574 165.718 20.351 163.595 19.2945C162.746 18.8611 161.953 18.3464 161.217 17.7504C161.075 17.642 161.075 17.5607 161.16 17.4253C162.179 16.0437 163.198 14.6621 164.218 13.2805C164.331 13.1451 164.387 13.118 164.529 13.2534C165.916 14.4725 167.529 15.231 169.398 15.5561C170.304 15.7186 171.209 15.7728 172.115 15.6103C172.427 15.5561 172.766 15.4206 173.049 15.2581C173.644 14.9059 173.672 14.2016 173.106 13.8223C172.766 13.6056 172.37 13.416 171.945 13.3347C171.096 13.118 170.247 12.9825 169.398 12.82C168.096 12.5491 166.765 12.3053 165.52 11.7906C164.387 11.33 163.425 10.6528 162.689 9.73173C162.179 9.10866 161.925 8.35014 161.84 7.56453C161.67 6.39966 161.811 5.26188 162.321 4.17828C162.972 2.82378 164.048 1.84854 165.406 1.17129C166.765 0.494041 168.265 0.196051 169.794 0.141871C172.143 0.0335113 174.38 0.358591 176.559 1.25256C177.55 1.65891 178.456 2.17362 179.305 2.79669C179.447 2.90505 179.447 2.95923 179.362 3.09468C178.314 4.42209 177.267 5.72241 176.22 7.04982C176.106 7.18527 176.05 7.21236 175.88 7.104C174.521 6.15585 172.964 5.58696 171.294 5.31606C170.558 5.2077 169.794 5.15352 169.058 5.37024C168.577 5.50569 168.294 5.80368 168.265 6.21003C168.237 6.61638 168.435 6.94146 168.832 7.07691C169.228 7.23945 169.624 7.3749 170.049 7.45617C171.209 7.69998 172.398 7.86252 173.559 8.13342C174.804 8.40432 176.05 8.70231 177.154 9.35247C178.116 9.92136 178.994 10.5986 179.503 11.6009C179.956 12.522 180.041 13.4972 179.985 14.4996C179.871 15.827 179.475 17.046 178.597 18.0754C177.663 19.159 176.474 19.8634 175.116 20.2968C173.502 20.7032 172.285 20.8115 170.219 20.8115Z" fill="var(--fill-0, white)"/>
<path id="Vector_5" d="M109.292 10.3819C109.292 7.1311 109.292 3.90739 109.292 0.656592C109.292 0.331512 109.292 0.331512 109.632 0.331512C113.227 0.331512 116.793 0.331512 120.388 0.331512C121.521 0.331512 122.653 0.439872 123.729 0.846222C125.965 1.68601 127.408 3.23014 127.946 5.47861C128.371 7.23946 128.201 8.97322 127.295 10.6257C126.559 11.9531 125.427 12.8471 123.983 13.416C123.021 13.7952 122.03 13.9578 121.011 13.9849C119.369 14.012 117.699 13.9849 116.057 13.9849C115.718 13.9849 115.718 13.9849 115.718 14.31C115.718 16.2604 115.718 18.2109 115.718 20.1614C115.718 20.4594 115.718 20.4594 115.406 20.4594C113.481 20.4594 111.528 20.4594 109.603 20.4594C109.32 20.4594 109.32 20.4594 109.32 20.1885C109.292 16.9106 109.292 13.6327 109.292 10.3819ZM117.926 8.91904C118.577 8.91904 119.228 8.94613 119.879 8.91904C121.238 8.86486 122.002 7.69999 121.521 6.50803C121.209 5.74951 120.53 5.42443 119.709 5.42443C118.463 5.42443 117.19 5.42443 115.944 5.42443C115.746 5.42443 115.689 5.47861 115.689 5.66824C115.689 6.69766 115.689 7.69999 115.689 8.72941C115.689 8.91904 115.774 8.97322 115.944 8.97322C116.595 8.91904 117.275 8.91904 117.926 8.91904Z" fill="var(--fill-0, white)"/>
<path id="Vector_6" d="M48.9317 0.358602C49.0449 0.358602 49.1298 0.331512 49.2147 0.331512C51.4227 0.331512 53.6023 0.331512 55.8102 0.331512C56.0084 0.331512 56.1216 0.412782 56.2348 0.575322C57.452 2.68834 58.6692 4.77427 59.8864 6.88729C59.9148 6.94147 59.9714 7.02274 60.028 7.10401C60.1129 6.99565 60.1695 6.88729 60.2261 6.80602C61.415 4.72009 62.6039 2.63416 63.7928 0.548232C63.8777 0.412782 63.9626 0.358602 64.1325 0.358602C66.3404 0.358602 68.5767 0.358602 70.7846 0.358602C70.8695 0.358602 70.9262 0.358602 71.0394 0.358602C70.9828 0.466962 70.9545 0.521142 70.9262 0.575322C68.4068 4.47628 65.8875 8.35015 63.3965 12.2511C63.3116 12.3866 63.255 12.5762 63.255 12.7116C63.255 15.2039 63.255 17.6691 63.255 20.1614C63.255 20.4594 63.255 20.4594 62.9436 20.4594C61.0187 20.4594 59.0655 20.4594 57.1407 20.4594C56.8576 20.4594 56.8576 20.4594 56.8576 20.1885C56.8576 17.6962 56.8576 15.231 56.8576 12.7387C56.8576 12.5762 56.801 12.4137 56.7161 12.2782C54.1968 8.37724 51.6491 4.50337 49.1015 0.602412C49.0166 0.521142 48.9883 0.439872 48.9317 0.358602Z" fill="var(--fill-0, white)"/>
<path id="Vector_7" d="M31.362 10.3819C31.362 7.13111 31.362 3.8803 31.362 0.629503C31.362 0.331512 31.362 0.331512 31.6734 0.331512C33.5982 0.331512 35.5231 0.331512 37.448 0.331512C37.7311 0.331512 37.7311 0.331512 37.7311 0.602413C37.7311 5.28899 37.7311 10.0026 37.7311 14.6892C37.7311 14.7705 37.7311 14.8518 37.7311 14.933C37.7311 15.0685 37.7877 15.1498 37.9292 15.1227C37.9858 15.1227 38.0424 15.1227 38.0991 15.1227C40.5335 15.1227 42.9679 15.1227 45.4306 15.1227C45.7419 15.1227 45.7419 15.1227 45.7419 15.3936C45.7419 16.9919 45.7419 18.5631 45.7419 20.1614C45.7419 20.351 45.6853 20.4052 45.4872 20.4052C40.8448 20.4052 36.2308 20.4052 31.5885 20.4052C31.362 20.4052 31.3337 20.3239 31.3337 20.1343C31.362 16.9106 31.362 13.6598 31.362 10.3819Z" fill="var(--fill-0, white)"/>
</g>
</svg>
